# 3ds Max Wavefront OBJ Exporter v0.99 - (c)2007 guruware
# File Created: 11.03.2024 23:32:59

mtllib diamond.mtl

#
# object Cylinder001
#

v  0.0000 -0.5000 -0.0000
v  0.1545 0.0000 -0.4755
v  0.5000 0.0000 -0.0000
v  -0.4045 0.0000 -0.2939
v  -0.4045 0.0000 0.2939
v  0.1545 0.0000 0.4755
v  0.5309 0.0500 -0.0000
v  0.1641 0.0500 -0.5049
v  0.1641 0.2500 -0.5049
v  0.5309 0.2500 -0.0000
v  -0.4295 0.0500 -0.3121
v  -0.4295 0.2500 -0.3121
v  -0.4295 0.0500 0.3121
v  -0.4295 0.2500 0.3121
v  0.1641 0.0500 0.5049
v  0.1641 0.2500 0.5049
v  0.1124 0.4125 0.3459
v  0.3637 0.4125 0.0000
v  0.1124 0.4125 -0.3459
v  -0.2942 0.4125 -0.2138
v  -0.2942 0.4125 0.2138
v  0.5000 0.3000 -0.0000
v  0.1545 0.3000 -0.4755
v  -0.4045 0.3000 -0.2939
v  -0.4045 0.3000 0.2939
v  0.1545 0.3000 0.4755
# 26 vertices

vn 0.0000 -1.0000 0.0000
vn 0.2472 -0.5999 -0.7609
vn 0.8001 -0.5999 -0.0000
vn -0.6473 -0.5999 -0.4703
vn -0.6473 -0.5999 0.4703
vn 0.2472 -0.5999 0.7609
vn 0.9683 -0.2496 -0.0000
vn 0.2992 -0.2496 -0.9209
vn 0.2992 0.2496 -0.9209
vn 0.9683 0.2496 -0.0000
vn -0.7834 -0.2496 -0.5692
vn -0.7834 0.2496 -0.5692
vn -0.7834 -0.2496 0.5691
vn -0.7834 0.2496 0.5691
vn 0.2993 -0.2496 0.9209
vn 0.2993 0.2496 0.9209
vn 0.1376 0.8954 0.4235
vn 0.4453 0.8954 -0.0000
vn 0.1376 0.8954 -0.4235
vn -0.3603 0.8954 -0.2618
vn -0.3603 0.8954 0.2618
vn 0.7783 0.6279 -0.0000
vn 0.2405 0.6279 -0.7402
vn -0.6297 0.6279 -0.4575
vn -0.6297 0.6279 0.4575
vn 0.2405 0.6279 0.7402
# 26 vertex normals

vt 0.5739 0.0000 0.0955
vt 0.9500 0.5000 1.0000
vt 0.7500 0.5000 1.0000
vt 0.2500 0.0000 1.0000
vt 0.1500 0.5000 1.0000
vt -0.0500 0.5000 1.0000
vt 0.3500 0.5000 1.0000
vt 0.5500 0.5000 1.0000
vt 0.9500 1.0000 1.0000
vt 0.7500 1.0000 1.0000
vt 0.1500 1.0000 1.0000
vt -0.0500 1.0000 1.0000
vt 0.3500 1.0000 1.0000
vt 0.5500 1.0000 1.0000
vt 0.5281 1.0000 -0.3820
vt 0.0674 1.0000 -1.2361
# 16 texture coords

o Cylinder001
g Cylinder001
usemtl wire_087225198
s 8
f 1/1/1 2/2/2 3/3/3 
f 1/4/1 4/5/4 2/6/2 
f 1/4/1 5/7/5 4/5/4 
f 1/4/1 6/8/6 5/7/5 
f 1/1/1 3/3/3 6/8/6 
f 7/3/7 8/2/8 9/9/9 10/10/10 
f 8/6/8 11/5/11 12/11/12 9/12/9 
f 11/5/11 13/7/13 14/13/14 12/11/12 
f 13/7/13 15/8/15 16/14/16 14/13/14 
f 15/8/15 7/3/7 10/10/10 16/14/16 
s 1
f 17/14/17 18/10/18 19/9/19 20/15/20 21/16/21 
s off
f 22/10/22 23/9/23 19/9/19 18/10/18 
f 23/9/23 24/15/24 20/15/20 19/9/19 
f 24/15/24 25/16/25 21/16/21 20/15/20 
f 25/16/25 26/14/26 17/14/17 21/16/21 
f 26/14/26 22/10/22 18/10/18 17/14/17 
f 3/3/3 2/2/2 8/2/8 7/3/7 
f 2/6/2 4/5/4 11/5/11 8/6/8 
f 4/5/4 5/7/5 13/7/13 11/5/11 
f 5/7/5 6/8/6 15/8/15 13/7/13 
f 6/8/6 3/3/3 7/3/7 15/8/15 
f 23/9/23 22/10/22 10/10/10 9/9/9 
f 22/10/22 26/14/26 16/14/16 10/10/10 
f 26/14/26 25/13/25 14/13/14 16/14/16 
f 25/13/25 24/11/24 12/11/12 14/13/14 
f 24/11/24 23/12/23 9/12/9 12/11/12 
# 21 polygons - 5 triangles

