# 3ds Max Wavefront OBJ Exporter v0.99 - (c)2007 guruware
# File Created: 11.03.2024 23:28:03

mtllib emerald.mtl

#
# object Box001
#

v  0.0000 -0.7500 -0.0000
v  0.5000 -0.2500 0.5000
v  -0.5000 -0.2500 0.5000
v  -0.4750 -0.1250 0.4750
v  0.4750 -0.1250 0.4750
v  0.4750 0.1250 0.4750
v  -0.4750 0.1250 0.4750
v  -0.5000 0.2500 0.5000
v  0.5000 0.2500 0.5000
v  0.0000 0.7500 -0.0000
v  0.5000 -0.2500 -0.5000
v  0.4750 -0.1250 -0.4750
v  0.4750 0.1250 -0.4750
v  0.5000 0.2500 -0.5000
v  -0.5000 -0.2500 -0.5000
v  -0.4750 -0.1250 -0.4750
v  -0.4750 0.1250 -0.4750
v  -0.5000 0.2500 -0.5000
# 18 vertices

vn 0.0000 -1.0000 -0.0000
vn 0.6804 -0.2723 0.6804
vn -0.6804 -0.2723 0.6804
vn -0.6995 0.1466 0.6995
vn 0.6995 0.1466 0.6995
vn 0.6995 -0.1466 0.6995
vn -0.6995 -0.1466 0.6995
vn -0.6804 0.2723 0.6804
vn 0.6804 0.2723 0.6804
vn 0.0000 1.0000 -0.0000
vn 0.6804 -0.2723 -0.6804
vn 0.6995 0.1466 -0.6995
vn 0.6995 -0.1466 -0.6995
vn 0.6804 0.2723 -0.6804
vn -0.6804 -0.2723 -0.6804
vn -0.6995 0.1466 -0.6995
vn -0.6995 -0.1466 -0.6995
vn -0.6804 0.2723 -0.6804
# 18 vertex normals

vt 0.5000 0.0000 0.0000
vt 1.0000 0.3333 0.0000
vt 0.0000 0.3333 0.0000
vt 1.0000 0.6667 0.0000
vt 0.0000 0.6667 0.0000
vt 0.5000 1.0000 0.0000
# 6 texture coords

o Box001
g Box001
usemtl wire_027177027
s 8
f 1/1/1 2/2/2 3/3/3 
f 4/3/4 5/2/5 6/4/6 7/5/7 
f 8/5/8 9/4/9 10/6/10 
s 16
f 1/1/1 11/2/11 2/3/2 
f 5/3/5 12/2/12 13/4/13 6/5/6 
f 9/5/9 14/4/14 10/6/10 
s 32
f 1/1/1 15/2/15 11/3/11 
f 12/3/12 16/2/16 17/4/17 13/5/13 
f 14/5/14 18/4/18 10/6/10 
s 64
f 1/1/1 3/2/3 15/3/15 
f 16/3/16 4/2/4 7/4/7 17/5/17 
f 18/5/18 8/4/8 10/6/10 
s off
f 3/3/3 2/2/2 5/2/5 4/3/4 
f 2/3/2 11/2/11 12/2/12 5/3/5 
f 11/3/11 15/2/15 16/2/16 12/3/12 
f 15/3/15 3/2/3 4/2/4 16/3/16 
f 9/4/9 8/5/8 7/5/7 6/4/6 
f 8/4/8 18/5/18 17/5/17 7/4/7 
f 18/4/18 14/5/14 13/5/13 17/4/17 
f 14/4/14 9/5/9 6/5/6 13/4/13 
# 12 polygons - 8 triangles

