# 3ds Max Wavefront OBJ Exporter v0.99 - (c)2007 guruware
# File Created: 11.03.2024 23:41:18

mtllib rock.mtl

#
# object GeoSphere001
#

v  -0.0296 0.4446 -0.0055
v  0.2629 0.4253 -0.0000
v  0.0270 0.3200 -0.3315
v  0.4472 0.2236 -0.0000
v  0.2781 0.2281 -0.3267
v  0.1013 0.1944 -0.4773
v  -0.2254 0.3200 -0.2495
v  -0.1556 0.1805 -0.4641
v  -0.3535 0.1468 -0.3425
v  -0.2422 0.3699 0.1490
v  -0.4080 0.1805 -0.1168
v  -0.3914 0.1682 0.2574
v  0.0517 0.3699 0.2445
v  -0.1610 0.2074 0.3990
v  0.1086 0.1682 0.4198
v  0.3441 0.2629 0.2500
v  0.4755 0.0000 0.1545
v  0.4755 0.0000 -0.1545
v  0.3618 -0.1809 0.3725
v  0.4253 -0.2629 0.0000
v  0.2933 -0.1896 -0.3378
v  0.2350 0.0024 -0.4594
v  -0.0174 0.0391 -0.5010
v  0.0955 -0.1867 -0.4190
v  -0.1360 -0.1529 -0.4369
v  -0.2698 0.0024 -0.4594
v  -0.4257 0.0024 -0.2447
v  -0.3129 -0.2234 -0.3267
v  -0.4014 -0.1896 -0.1121
v  -0.4511 -0.0452 0.0159
v  -0.3234 -0.0554 0.3990
v  -0.3441 -0.2629 0.3126
v  -0.1382 -0.2236 0.4879
v  -0.0296 -0.0127 0.5416
v  0.2939 0.0000 0.4045
v  0.1314 -0.2201 0.5141
v  0.0000 -0.4573 0.0471
v  -0.0871 -0.3262 -0.2863
v  0.2127 -0.3826 -0.1074
v  -0.2629 -0.3826 0.0471
v  -0.0812 -0.3826 0.3596
v  0.2127 -0.3826 0.2641
# 42 vertices

vn -0.1121 0.9927 -0.0449
vn 0.4227 0.9056 -0.0344
vn 0.0465 0.8533 -0.5193
vn 0.8847 0.4632 -0.0518
vn 0.6036 0.5581 -0.5694
vn 0.2172 0.4749 -0.8528
vn -0.4349 0.8219 -0.3680
vn -0.2721 0.4803 -0.8338
vn -0.7448 0.4011 -0.5333
vn -0.4785 0.8426 0.2471
vn -0.8748 0.4720 -0.1094
vn -0.8237 0.3753 0.4251
vn 0.0610 0.8436 0.5335
vn -0.2860 0.5709 0.7696
vn 0.2281 0.5219 0.8219
vn 0.6161 0.5683 0.5454
vn 0.9597 0.0261 0.2798
vn 0.9389 -0.0053 -0.3441
vn 0.7500 -0.2912 0.5939
vn 0.8110 -0.5809 -0.0693
vn 0.5699 -0.5260 -0.6313
vn 0.5043 -0.0583 -0.8615
vn -0.0076 -0.0708 -0.9975
vn 0.1529 -0.5693 -0.8078
vn -0.1420 -0.4769 -0.8674
vn -0.5048 -0.0711 -0.8603
vn -0.9417 -0.0301 -0.3350
vn -0.5925 -0.5882 -0.5505
vn -0.8788 -0.4570 -0.1376
vn -0.9946 -0.0812 0.0649
vn -0.7218 0.0277 0.6916
vn -0.7590 -0.5005 0.4165
vn -0.3297 -0.3858 0.8617
vn -0.0573 0.1951 0.9791
vn 0.5827 0.2243 0.7811
vn 0.2756 -0.3698 0.8873
vn -0.0131 -0.9981 -0.0601
vn -0.0974 -0.8411 -0.5320
vn 0.3552 -0.8836 -0.3049
vn -0.5296 -0.8471 -0.0444
vn -0.1569 -0.8587 0.4878
vn 0.4057 -0.8565 0.3190
# 42 vertex normals

vt 0.6000 1.0000 20.0000
vt 0.5000 0.8238 20.0000
vt 0.7000 0.8238 20.0000
vt 0.5000 0.6476 20.0000
vt 0.6000 0.6762 20.0000
vt 0.7000 0.6476 20.0000
vt 0.8000 1.0000 20.0000
vt 0.9000 0.8238 20.0000
vt 0.8000 0.6762 20.0000
vt 0.9000 0.6476 20.0000
vt 0.0000 1.0000 20.0000
vt -0.1000 0.8238 20.0000
vt 0.1000 0.8238 20.0000
vt -0.1000 0.6476 20.0000
vt 0.0000 0.6762 20.0000
vt 0.1000 0.6476 20.0000
vt 0.2000 1.0000 20.0000
vt 0.3000 0.8238 20.0000
vt 0.2000 0.6762 20.0000
vt 0.3000 0.6476 20.0000
vt 0.4000 1.0000 20.0000
vt 0.4000 0.6762 20.0000
vt 0.4500 0.5000 20.0000
vt 0.5500 0.5000 20.0000
vt 0.4000 0.3524 20.0000
vt 0.5000 0.3238 20.0000
vt 0.6000 0.3524 20.0000
vt 0.6500 0.5000 20.0000
vt 0.7500 0.5000 20.0000
vt 0.7000 0.3238 20.0000
vt 0.8000 0.3524 20.0000
vt 0.8500 0.5000 20.0000
vt 0.9500 0.5000 20.0000
vt 0.9000 0.3238 20.0000
vt -0.0500 0.5000 20.0000
vt -0.1000 0.3238 20.0000
vt 0.0000 0.3524 20.0000
vt 0.0500 0.5000 20.0000
vt 0.1500 0.5000 20.0000
vt 0.1000 0.3238 20.0000
vt 0.2000 0.3524 20.0000
vt 0.2500 0.5000 20.0000
vt 0.3500 0.5000 20.0000
vt 0.3000 0.3238 20.0000
vt 0.7000 0.0000 20.0000
vt 0.8000 0.1762 20.0000
vt 0.6000 0.1762 20.0000
vt -0.1000 0.0000 20.0000
vt 0.0000 0.1762 20.0000
vt -0.2000 0.1762 20.0000
vt 0.1000 0.0000 20.0000
vt 0.2000 0.1762 20.0000
vt 0.3000 0.0000 20.0000
vt 0.4000 0.1762 20.0000
vt 0.5000 0.0000 20.0000
# 55 texture coords

o GeoSphere001
g GeoSphere001
usemtl wire_086086086
s 1
f 1/1/1 2/2/2 3/3/3 
f 2/2/2 4/4/4 5/5/5 
f 2/2/2 5/5/5 3/3/3 
f 3/3/3 5/5/5 6/6/6 
f 1/7/1 3/3/3 7/8/7 
f 3/3/3 6/6/6 8/9/8 
f 3/3/3 8/9/8 7/8/7 
f 7/8/7 8/9/8 9/10/9 
f 1/11/1 7/12/7 10/13/10 
f 7/12/7 9/14/9 11/15/11 
f 7/12/7 11/15/11 10/13/10 
f 10/13/10 11/15/11 12/16/12 
f 1/17/1 10/13/10 13/18/13 
f 10/13/10 12/16/12 14/19/14 
f 10/13/10 14/19/14 13/18/13 
f 13/18/13 14/19/14 15/20/15 
f 1/21/1 13/18/13 2/2/2 
f 13/18/13 15/20/15 16/22/16 
f 13/18/13 16/22/16 2/2/2 
f 2/2/2 16/22/16 4/4/4 
f 4/4/4 17/23/17 18/24/18 
f 17/23/17 19/25/19 20/26/20 
f 17/23/17 20/26/20 18/24/18 
f 18/24/18 20/26/20 21/27/21 
f 6/6/6 22/28/22 23/29/23 
f 22/28/22 21/27/21 24/30/24 
f 22/28/22 24/30/24 23/29/23 
f 23/29/23 24/30/24 25/31/25 
f 9/10/9 26/32/26 27/33/27 
f 26/32/26 25/31/25 28/34/28 
f 26/32/26 28/34/28 27/33/27 
f 27/35/27 28/36/28 29/37/29 
f 12/16/12 30/38/30 31/39/31 
f 30/38/30 29/37/29 32/40/32 
f 30/38/30 32/40/32 31/39/31 
f 31/39/31 32/40/32 33/41/33 
f 15/20/15 34/42/34 35/43/35 
f 34/42/34 33/41/33 36/44/36 
f 34/42/34 36/44/36 35/43/35 
f 35/43/35 36/44/36 19/25/19 
f 21/27/21 22/28/22 18/24/18 
f 22/28/22 6/6/6 5/5/5 
f 22/28/22 5/5/5 18/24/18 
f 18/24/18 5/5/5 4/4/4 
f 25/31/25 26/32/26 23/29/23 
f 26/32/26 9/10/9 8/9/8 
f 26/32/26 8/9/8 23/29/23 
f 23/29/23 8/9/8 6/6/6 
f 29/37/29 30/38/30 27/35/27 
f 30/38/30 12/16/12 11/15/11 
f 30/38/30 11/15/11 27/35/27 
f 27/35/27 11/15/11 9/14/9 
f 33/41/33 34/42/34 31/39/31 
f 34/42/34 15/20/15 14/19/14 
f 34/42/34 14/19/14 31/39/31 
f 31/39/31 14/19/14 12/16/12 
f 19/25/19 17/23/17 35/43/35 
f 17/23/17 4/4/4 16/22/16 
f 17/23/17 16/22/16 35/43/35 
f 35/43/35 16/22/16 15/20/15 
f 37/45/37 38/46/38 39/47/39 
f 38/46/38 25/31/25 24/30/24 
f 38/46/38 24/30/24 39/47/39 
f 39/47/39 24/30/24 21/27/21 
f 37/48/37 40/49/40 38/50/38 
f 40/49/40 29/37/29 28/36/28 
f 40/49/40 28/36/28 38/50/38 
f 38/46/38 28/34/28 25/31/25 
f 37/51/37 41/52/41 40/49/40 
f 41/52/41 33/41/33 32/40/32 
f 41/52/41 32/40/32 40/49/40 
f 40/49/40 32/40/32 29/37/29 
f 37/53/37 42/54/42 41/52/41 
f 42/54/42 19/25/19 36/44/36 
f 42/54/42 36/44/36 41/52/41 
f 41/52/41 36/44/36 33/41/33 
f 37/55/37 39/47/39 42/54/42 
f 39/47/39 21/27/21 20/26/20 
f 39/47/39 20/26/20 42/54/42 
f 42/54/42 20/26/20 19/25/19 
# 0 polygons - 80 triangles

